     *********** ****    ****      ***      ******** *********** ****    *** **********
          *+*     +*+*+* *+*+*+   *+* *+*   *+*    *+*    *+*     *+*+*   *+* *+*        
          +*+     +*+ +*+*+ +*+  +*+   +*+  +*+           +*+     *+*+*+  +*+ +*+        
          +$+     +$+  +*+  +$+ +$++*++$++* *$*           +$+     +$+ +*+ +$+ +$++*++$  
          +$+     +$+       +$+ +$+     +$+ +$+   +$+$    +$+     +$+  +$+$+$ +$+        
          $+$     $+$       $+$ $+$     $+$ $+$    $+$    $+$     $+$   $+$+$ $+$        
      $$$$$$$$$$$ $$$       $$$ $$$     $$$  $$$$$$$$ $$$$$$$$$$$ $$$    $$$$ $$$$$$$$$$     
                                               



                          Another Fine Release Brought to you from - IMAGiNE                   
                                                http://imaginegroup.me/

********************************************************************************************************************                                
                                        The Losers DVDSCR XViD - IMAGiNE
********************************************************************************************************************

Ripper ...........: IMAGiNE                                        IMDB Rating.......:6.9/10                             
Video Codec.......: XVID                                         Release Date......:04/05/10
Audio Codec.......:AC-3                                           Theatre Date......:23/04/10
Audio Bitrate.....:256                                              Runtime.......:1h 32mn
Subtitles.........:ENG when needed                      Language..........:ENGLISH
Resolution...... 720 x 304                                      IMDb URL..........:http://www.imdb.com/title/tt0480255/


DETAILS:

Video
Format                           : MPEG-4 Visual
Format profile                   : Streaming Video@L1
Format settings, BVOP            : Yes
Format settings, QPel            : No
Format settings, GMC             : No warppoints
Format settings, Matrix          : Default
Muxing mode                      : Packed bitstream
Codec ID                         : XVID
Codec ID/Hint                    : XviD
Duration                         : 1h 36mn
Bit rate                         : 1 958 Kbps
Width                            : 720 pixels
Height                           : 304 pixels
Display aspect ratio             : 2.35
Frame rate                       : 23.976 fps
Resolution                       : 24 bits
Colorimetry                      : 4:2:0
Scan type                        : Progressive
Bits/(Pixel*Frame)               : 0.373
Stream size                      : 1.33 GiB (88%)
Writing library                  : XviD 50

Audio
Format                           : AC-3
Format/Info                      : Audio Coding 3
Codec ID                         : 2000
Duration                         : 1h 36mn
Bit rate mode                    : Constant
Bit rate                         : 256 Kbps
Channel(s)                       : 2 channels
Channel positions                : L R
Sampling rate                    : 48.0 KHz
Stream size                      : 178 MiB (12%)
Alignment                        : Aligned on interleaves
Interleave, duration             : 42 ms (1.00 video frame)
Interleave, preload duration     : 512 ms




NOTES:

IMAGiNE bringing you another release.....The Losers DVDSCR
Well wouldn't you know it, as soon as we do a TS of the losers a DVDSCR was dumped in our lap by our good friend MrFreestyle... Thanx bro
This turned out to be a very nice source so not much had been done other than a few tweaks here and there. Audio is nice crisp studio audio. Scanned through it and did not see any property of or anything like that, but i could have missed it.


Enjoy...

SCREENS:
 
http://bayimg.com/PAMmmAACF 
http://bayimg.com/PAMMNAACF 
http://bayimg.com/paMMOAacf 
http://bayimg.com/PamMPaACf



GREETS:

FLAWL3SS,ViSiON,FUSiON,Rx,SecretMyth,BirdFlu,ELEKTRI4KA
And to all the other p2p grps past and present 


Looking for these,syncers,cammers,silver supplier.....Have anything to offer????......
Contact us imaginegroup@hushmail.com
